/* XPM */
static const char * hpiinfo_16x16_xpm[] = {
"16 16 72 1",
" 	c None",
".	c #E3766C",
"+	c #D7372A",
"@	c #D73729",
"#	c #D7382A",
"$	c #E6837B",
"%	c #ECA29C",
"&	c #DD574B",
"*	c #D83E30",
"=	c #F1BAB5",
"-	c #F6D2CF",
";	c #F2C2BE",
">	c #DA483B",
",	c #F4CAC6",
"'	c #E47A71",
")	c #F4CBC7",
"!	c #E16A5F",
"~	c #DC5044",
"{	c #DE5D51",
"]	c #E57F76",
"^	c #F3C3BF",
"/	c #DC5449",
"(	c #F3C4C0",
"_	c #DA4B3E",
":	c #DA483C",
"<	c #FAE9E7",
"[	c #DC5246",
"}	c #D73B2D",
"|	c #DD564A",
"1	c #F1BCB8",
"2	c #D94336",
"3	c #F1BDB9",
"4	c #EA968E",
"5	c #DA4A3E",
"6	c #DF5F54",
"7	c #DC5448",
"8	c #F0B4AF",
"9	c #D83F31",
"0	c #E3776E",
"a	c #D7392C",
"b	c #D83C2E",
"c	c #EB9C96",
"d	c #EEADA8",
"e	c #D83C2F",
"f	c #F9E3E1",
"g	c #EB9D96",
"h	c #DA473B",
"i	c #DB4C3F",
"j	c #EDA7A1",
"k	c #EDA8A2",
"l	c #E88F87",
"m	c #E9938B",
"n	c #DF5F53",
"o	c #D94639",
"p	c #ECA19B",
"q	c #F6D7D4",
"r	c #D7392B",
"s	c #E88E86",
"t	c #E37369",
"u	c #E27167",
"v	c #EA968F",
"w	c #E57D74",
"x	c #D73A2C",
"y	c #F6D5D2",
"z	c #D83F32",
"A	c #EFAFAA",
"B	c #E4786F",
"C	c #F3C6C2",
"D	c #F3C7C4",
"E	c #DF6055",
"F	c #E7877F",
"G	c #D83D30",
".+@@@@@@@@@@@@+.",
"#@@@@@@@@@@$%&##",
"@@@@@@@@@*=-;@@@",
"@@@@@@@@>,')!@@@",
"@@@@@@@~){]^@@@@",
"@@@@@@/(_:<[@@@}",
"@@@@@|12@34@@@56",
"@@@@789@0-a@@bc#",
"@@@~de@2f7@@@gh@",
"@@ijb@@kl@@@mn@@",
"@op}@@[qr@@st@@@",
"#sb@@@du@@vw@@@@",
"@@@@@xy@zAB@@@@@",
"@@@@@iC]DE@@@@@@",
"#@@@@@sFG@@@@@@#",
".+@@@@@@@@@@@@+."};
